<svg width="24" height="24" viewBox="0 0 24 24" fill="none" xmlns="http://www.w3.org/2000/svg">
<path d="M5.99951 13.2848C5.99951 11.6348 6.66951 10.1348 7.75951 9.04485L6.33951 7.62485C4.89951 9.07485 3.99951 11.0748 3.99951 13.2848C3.99951 17.3648 7.04951 20.7248 10.9995 21.2148V19.1948C8.16951 18.7148 5.99951 16.2548 5.99951 13.2848ZM19.9995 13.2848C19.9995 8.86485 16.4195 5.28485 11.9995 5.28485C11.9395 5.28485 11.8795 5.29485 11.8195 5.29485L12.9095 4.20485L11.4995 2.78485L7.99951 6.28485L11.4995 9.78485L12.9095 8.37485L11.8295 7.29485C11.8895 7.29485 11.9495 7.28485 11.9995 7.28485C15.3095 7.28485 17.9995 9.97485 17.9995 13.2848C17.9995 16.2548 15.8295 18.7148 12.9995 19.1948V21.2148C16.9495 20.7248 19.9995 17.3648 19.9995 13.2848Z" fill="#5F69C7"/>
</svg>
